<?xml version="1.0" standalone="no"?>
<!DOCTYPE svg PUBLIC "-//W3C//DTD SVG 20010904//EN" "http://www.w3.org/TR/2001/REC-SVG-20010904/DTD/svg10.dtd">
<svg version="1.0" xmlns="http://www.w3.org/2000/svg"
    width="64.000000pt" height="64.000000pt" viewBox="0 0 64.000000 64.000000"
    preserveAspectRatio="xMidYMid meet">

    <g transform="translate(0.000000,64.000000) scale(0.100000,-0.100000)"
        fill="#000000" stroke="none">
        <path
            d="M263 630 c-31 -10 -75 -45 -159 -128 -41 -39 -44 -46 -44 -95 0 -61
25 -110 70 -135 41 -23 43 -81 4 -109 -17 -13 -33 -42 -48 -88 l-23 -70 255
-3 c140 -1 257 -1 259 2 2 2 -3 29 -12 61 -22 74 -65 123 -116 131 -43 7 -49
22 -19 49 11 10 22 27 26 38 4 12 17 30 30 40 21 16 24 27 24 91 0 85 -25 144
-81 188 -40 32 -112 44 -166 28z m131 -30 c23 -11 52 -36 65 -55 26 -39 42
-135 22 -135 -6 0 -11 17 -11 40 0 22 -1 40 -3 40 -1 0 -20 -9 -42 -20 -49
-25 -72 -25 -80 -1 -9 29 -72 81 -98 81 -12 0 -28 4 -35 9 -16 10 -2 24 49 45
47 21 85 20 133 -4z m-134 -76 c48 -20 80 -67 80 -120 0 -51 -17 -83 -59 -111
-85 -58 -201 2 -201 104 0 62 23 101 73 124 51 23 57 23 107 3z m190 -134 c0
-74 -18 -120 -58 -149 -43 -30 -132 -28 -132 4 0 18 18 23 55 18 21 -3 38 2
58 17 26 21 37 60 17 60 -5 0 -10 -5 -10 -12 0 -18 -31 -48 -51 -48 -17 0 -16
4 6 36 14 20 25 46 25 57 0 16 3 17 15 7 18 -15 35 -5 35 22 0 16 -5 19 -25
16 -36 -7 -31 6 8 19 56 18 57 18 57 -47z m32 -42 c-9 -9 -12 -7 -12 12 0 19
3 21 12 12 9 -9 9 -15 0 -24z m-242 -108 c0 -5 -13 -10 -30 -10 -16 0 -30 5
-30 10 0 6 14 10 30 10 17 0 30 -4 30 -10z m0 -114 c0 -62 -4 -87 -15 -96 -12
-10 -18 -10 -30 0 -11 9 -15 34 -15 96 l0 84 30 0 30 0 0 -84z m140 74 c0 -27
-64 -39 -101 -20 -33 18 -21 25 41 25 33 0 60 -2 60 -5z m95 -35 c34 -17 46
-34 69 -102 l15 -43 -38 0 c-40 0 -51 11 -51 51 0 10 -5 19 -11 19 -7 0 -10
-14 -7 -35 l4 -35 -101 0 -100 0 3 70 c4 67 5 70 25 64 35 -11 79 -6 96 10 19
20 54 20 96 1z m-313 -80 l3 -65 -38 0 c-35 0 -38 2 -32 23 15 47 44 107 54
107 5 0 11 -29 13 -65z" />
        <path
            d="M183 513 c-13 -2 -36 -18 -53 -34 -24 -25 -30 -39 -30 -76 0 -36 6
-50 29 -73 16 -16 40 -32 55 -36 65 -16 136 38 136 103 0 43 -15 75 -27 57 -5
-6 -32 -15 -60 -19 -29 -4 -53 -11 -53 -16 0 -5 -5 -9 -11 -9 -6 0 -9 16 -7
38 3 35 5 37 40 40 20 2 46 -2 57 -7 11 -6 22 -7 25 -3 11 18 -62 42 -101 35z
m-43 -115 c0 -38 -3 -49 -10 -38 -16 25 -11 90 7 90 2 0 3 -24 3 -52z m160 -1
c0 -31 -27 -67 -45 -61 -9 4 -15 0 -15 -10 0 -9 -8 -16 -20 -16 -17 0 -20 7
-20 50 0 54 15 66 38 30 14 -23 42 -16 42 11 0 10 5 19 10 19 6 0 10 -10 10
-23z m-120 -32 c0 -14 -4 -25 -10 -25 -11 0 -14 33 -3 43 11 11 13 8 13 -18z" />
    </g>
</svg>